<?xml version="1.0" encoding="UTF-8"?>
<svg id="Layer_1" data-name="Layer 1" xmlns="http://www.w3.org/2000/svg" viewBox="0 0 1000 1000">
  <defs>
    <style>
      .cls-1 {
        fill: #fff;
      }

      .cls-2 {
        fill: #ffbb21;
      }

      .cls-3 {
        fill: #dd281a;
      }

      .cls-4 {
        fill: #392317;
      }

      .cls-5 {
        fill: #1c94d3;
      }

      .cls-6 {
        fill: #956d48;
      }

      .cls-7 {
        fill: #414042;
      }

      .cls-8 {
        fill: #028e41;
      }
    </style>
  </defs>
  <g>
    <path class="cls-5" d="M544.48,449.9c-1.77.98-4,.32-4.96-1.42-.98-1.77-.34-4,1.42-4.98,1.77-.96,4-.32,4.96,1.45.98,1.77.34,4-1.42,4.96Z"/>
    <path class="cls-5" d="M545.31,410.88c-1.06,1.74-3.29,2.28-5.03,1.25-1.72-1.05-2.26-3.29-1.23-5.03,1.05-1.72,3.29-2.26,5.03-1.23,1.72,1.06,2.26,3.29,1.23,5.01Z"/>
    <path class="cls-5" d="M578.21,389.78c-.05,2.01-1.72,3.61-3.73,3.56-2.01-.02-3.61-1.69-3.56-3.71.03-2.04,1.69-3.63,3.71-3.58,2.04.05,3.63,1.72,3.58,3.73Z"/>
    <path class="cls-5" d="M609.23,411.3c-1.77.96-3.98.32-4.96-1.45-.96-1.77-.32-4,1.45-4.96,1.77-.98,3.97-.32,4.96,1.45.98,1.77.32,3.97-1.45,4.96Z"/>
    <path class="cls-5" d="M611.12,447.69c-1.03,1.72-3.29,2.28-5.01,1.23-1.72-1.05-2.28-3.29-1.23-5.01,1.03-1.74,3.29-2.28,5.01-1.25,1.72,1.06,2.28,3.29,1.23,5.03Z"/>
    <path class="cls-5" d="M579.27,465.16c-.05,2.04-1.72,3.63-3.73,3.58-2.01-.05-3.61-1.72-3.56-3.73.02-2.01,1.69-3.61,3.7-3.56,2.04.02,3.63,1.69,3.58,3.71Z"/>
    <polygon class="cls-5" points="600.03 432.8 600.03 432.82 598.87 474.63 574.19 489.6 549.06 474.65 561.9 466.71 574.51 474.48 587.39 467.1 588.22 426.24 600.03 432.8"/>
    <polygon class="cls-5" points="582.88 451.69 546.07 471.61 520.77 457.72 521.17 428.5 534.47 435.62 534.02 450.44 546.86 457.9 582.65 438.19 582.88 451.69"/>
    <polygon class="cls-5" points="569.53 439.35 557.95 446.29 522.3 424.35 521.66 395.52 547.17 381.24 547.67 396.31 534.61 403.35 534.56 418.2 569.53 439.35"/>
    <polygon class="cls-5" points="601.11 380.14 588.3 388.09 575.69 380.31 562.81 387.7 561.95 428.55 550.17 422 550.17 421.97 551.32 380.16 575.98 365.17 601.11 380.14"/>
    <polygon class="cls-5" points="629.42 397.07 629.03 426.29 615.73 419.18 616.17 404.36 603.31 396.9 567.54 416.6 567.32 403.11 604.12 383.18 629.42 397.07"/>
    <path class="cls-5" d="M628.52,459.27l-25.49,14.28-.49-15.07,13.05-7.02v-.02l.03-14.84-34.94-21.15,11.58-6.92,35.65,21.91.61,28.83Z"/>
  </g>
  <g>
    <polygon class="cls-6" points="584.04 525.01 591.14 529.59 601.67 529.59 617.81 546.99 619.61 572.87 620.92 578.36 622.77 575.8 628.76 564.43 636.37 572.34 630.38 584.16 621.37 593.54 591.57 593.99 572.49 585.37 560.01 587.89 548.37 583.63 537.5 588.6 528.75 583.87 530.19 549.03 527.23 527.59 550.05 519.64 549.2 544.96 550.12 566.48 551.51 566.62 557.74 547.11 559.46 519.64 566.22 523.17 576.8 523.23 577.6 545.79 582.29 571.24 585.03 564.13 584.05 544.45 584.04 525.01"/>
    <polygon class="cls-6" points="644.57 612.42 644.57 641.77 505.59 641.77 505.59 617.02 508.82 617.87 511.56 618.59 529.23 612.71 546.53 615.56 541.96 604.49 527.69 604.26 511.33 609.87 508.82 607.75 507.25 606.45 508.82 605.14 525.86 590.64 530.99 591.27 537.19 593.88 544.44 590.64 549.37 589.89 560.96 595.9 565.4 601.91 561.51 609.25 558.15 626.95 564.35 627.05 567.65 616.31 575.23 601.48 568.7 592.44 574.83 591.17 588.68 599.75 620.77 600.67 633.57 612.13 644.57 612.42"/>
  </g>
  <g>
    <path class="cls-4" d="M444.21,475.17c-.75,1.08-10.81,11.39-19.33,19.95h-5.78l22.33-22.69,2.78,2.74Z"/>
    <path class="cls-4" d="M400.85,436.74v11.17l24.42,24.88-2.77,2.94-21.65-21.25v11.13l15.96,16.03-2.74,2.87-13.22-12.93v11.13c0,.52,5,4.83,7.64,7.67l-3.13,3.26c-1.37-1.31-2.84-3.46-4.51-4.37v5.84h-4.54v-5.84l-5.91,5.84h-6.43l12.34-12.41v-11.13l-24.39,23.54h-5.65c11.56-11.26,27.2-25.73,30.04-29.51v-11.13l-40.84,40.55-.1.03v-6.3l40.94-40.84v-11.17l-40.94,40.65v-6.14l43-42.41,35.88,34.57-3.17,3.33-30.23-30Z"/>
    <polygon class="cls-4" points="465.14 495.12 453.48 495.12 459.33 489.34 465.14 495.12"/>
    <polygon class="cls-4" points="452.86 484.47 442.19 495.12 436.18 495.12 449.66 481.27 452.86 484.47"/>
    <path class="cls-8" d="M427.17,375.66v11.13l38.79,38.79,28.44,28.37v6.33l-29.97-29.87-.03.03-37.22-37.06v11.1l30,29.97,37.22,37.19v5.78l-38.36-37.84-.07.1-28.8-28.31v10.25l21.45,21.48,45.77,45.77v6.24l-46.75-46.26-.07.07-20.99-20.73v10.55l15.77,15.9-.03.07,40.19,40.42h-5.45l-40.09-40.19-14.4-14.46v-12.86c-7.12,7.44-7.12,7.64-7.12,7.64l-3.13-3.82,10.25-9.79v-11.13l-15.15,14.82-2.55-3-.59-.69,18.28-17.7v-11.13l-67.19,67.48v-6.37l67.19-67.12v-11.13l-67.19,66.9v-6.27l69.18-69.08,50.02,49.62.07-.07,19.75,19.69v5.84l-21.42-21.29-.03.07-45.77-45.41Z"/>
  </g>
  <g>
    <path class="cls-2" d="M483.24,560.46l-3.07,9.42c-8.63-3.64-17.2-4.49-25.47-5.29-8.27-.82-16.08-1.59-23.94-4.93l4.9-15.01c.6.38,1.29.71,2.03.96.71.25,1.48.38,2.22.44l-.82,2.49-1.4,4.27c10.9,3.34,17.25,3.61,23.36,3.94,6.14.27,11.94.58,22.19,3.7Z"/>
    <path class="cls-2" d="M480.17,569.88l-1.81,5.56s-11.85-4.37-26.63-5.3c0,0-13.87-1.35-18.58-3.41l4.54-13.91,16.75,8.87,18.16-1.01,10.64-.21"/>
    <path class="cls-8" d="M463.43,641.63h-77.07c.99-3.92,4.55-6.82,8.79-6.82h59.46c4.24,0,7.83,2.9,8.82,6.82Z"/>
    <path class="cls-7" d="M446.45,630.32h-43.11c.99-3.92,4.55-6.85,8.79-6.85h25.5c4.25,0,7.81,2.93,8.82,6.85Z"/>
    <path class="cls-7" d="M491.43,535.44l-3.07,9.42c-8.63-3.64-17.2-4.49-25.47-5.29-8.27-.82-16.08-1.59-23.94-4.93l4.9-15.01c.6.38,1.29.71,2.03.96.71.25,1.48.38,2.22.44l-.82,2.49-1.4,4.27c10.9,3.34,17.25,3.61,23.36,3.94,6.14.27,11.94.58,22.19,3.7Z"/>
    <polygon class="cls-8" points="405.89 519.64 401.67 521.03 433.66 618.98 438.37 619.03 405.89 519.64"/>
    <path class="cls-3" d="M487.02,549.1l-3.07,9.42c-8.63-3.64-17.2-4.49-25.47-5.29-8.27-.82-16.08-1.59-23.94-4.93l4.9-15.01c.6.38,1.29.71,2.03.96.71.25,1.48.38,2.22.44l-.82,2.49-1.4,4.27c10.9,3.34,17.25,3.61,23.36,3.94,6.14.27,11.94.58,22.19,3.7Z"/>
    <path class="cls-3" d="M483.95,558.52l-1.81,5.56s-11.85-4.37-26.63-5.3c0,0-13.87-1.35-18.58-3.41l4.54-13.91,16.75,8.87,18.16-1.01,10.64-.21"/>
    <path class="cls-8" d="M438.37,619.03c-.25-.05-.49-.05-.74-.05h-3.97l-8.79-26.87-8.79,26.87h-3.94c-.25,0-.49.05-.74.05l11.15-34.1v-.03l-4.12-12.91-1.4-4.22c-10.33,3.15-16.1,3.45-22.19,3.73-6.13.3-12.43.58-23.36,3.94l-13.17-39.97c10.3-3.12,16.08-3.45,22.19-3.73,6.16-.27,12.52-.6,23.36-3.94l-1.37-4.27-.82-2.49c.74-.05,1.48-.19,2.19-.44.71-.25,1.4-.58,2.03-.96l18.98,58.06,7.81-23.86,3.83,1.42c.11.03.25.08.36.11l-2.33,7.12-1.4,4.25-5.92,18.16,11.15,34.13Z"/>
    <path class="cls-7" d="M488.36,544.86l-1.81,5.56s-11.85-4.37-26.63-5.3c0,0-13.87-1.35-18.58-3.41l4.54-13.91,16.75,8.87,18.16-1.01,10.64-.21"/>
    <polygon class="cls-7" points="448.1 521.03 436.87 555.38 434.54 562.5 433.14 566.75 427.23 584.91 424.87 592.11 416.08 618.98 411.4 619.03 422.54 584.93 422.54 584.91 432.68 553.85 443.85 519.64 448.1 521.03"/>
    <g>
      <path class="cls-1" d="M383.36,546.39s-.01.17-.07.16c-.85-1.52-1.07-2.71-.02-4.07.43-.57.79-.73,1.26-1.19.06-.06.15-.01.08-.17-.15.07-.33.09-.48.16-.08.04-.11.16-.23.2-.18.06-.37-.07-.49.26-.03-.04-.05-.07-.08-.11-.03.01-.07.02-.1.03-.05.39-.27.14-.29.38-.06,0-.13-.01-.19-.02.09.37-.07.26-.18.38-.05.05-.04.23-.09.32-.06.13-.26.37-.28.43-.03.11.01.32,0,.46-.02.13-.15.22-.05.41-.16.08-.19-.36-.21-.47-.18-1.36.57-2.44,1.6-3.06.45-.26,1-.38,1.34-.82-.35-.08-.59.11-.87.22-.47.18-.86.32-1.3.71-.03.03-.46.62-.42.33.36-.87.87-1.85,1.74-2.22.47-.2,1-.23,1.48-.37,0-.17-.06-.09-.13-.11-.24-.07-.96-.23-1.18-.2-.1.02-.73.52-.78.49.11-.53.83-.95,1.26-1.04.59-.13,1,.24,1.56.17-.05-.31-.11-.62-.16-.93.06-.07.11-.13.17-.2.02-.2-.19-.49-.07-.71.21.59.54,1.1.74,1.67.11.07.67-.69.8-.8.41-.36.82-.46,1.33-.42.15.01.7.07.55.32-.18-.03-.48-.03-.65.03-.05.02-.52.3-.6.35-.04.02-.31.27-.21.33.13.08,1.16-.37,1.41-.41.64-.11,1.62.43,2.08.78-.04.07-1.19-.11-1.34-.06-.07.03-.1.13-.16.15-.27.07-.5.05-.82.22-.07.03-.53.3-.4.41.58-.09,1.16-.34,1.75-.4,1.08-.09,2.16.39,2.52,1.29.02.13.04.27.06.4-.2-.16-.41-.38-.62-.53-.12-.08-.31-.18-.44-.27-.24-.15-.37-.07-.57-.12-.07-.02-.07-.16-.18-.06,0,.03,0,.07,0,.1-.09-.05-.18-.11-.27-.16-.02.06-.04.12-.06.18-.23-.18-.41.08-.68.11-.02.04.14.17.18.18.35.13.98.12,1.39.25,1.19.38,1.38,1.52,1.34,2.66-.22.02-.13-.24-.18-.34-.1-.2-.39-.39-.49-.57-.07-.13-.09-.28-.14-.42-.05.04-.09.08-.14.11-.05-.1-.1-.19-.15-.29-.22.13-.25-.14-.36-.27-.04.07-.07.14-.11.21-.06-.09-.13-.18-.19-.26-.07.04-.13.08-.2.12-.02-.07-.06-.14-.12-.18-.16-.11-.39-.08-.53-.1-.11-.01-.18-.12-.31-.05-.08.19.86.63,1,.73.92.67.96,1.83.37,3.03,0-.22-.19-.37-.24-.59-.03-.13.05-.29.01-.38-.01-.03-.11.05-.14-.04-.04-.11-.03-.3,0-.43-.05.02-.1.04-.16.05-.02-.33-.36-.25-.36-.63-.04.07-.07.15-.11.22-.06-.18-.08-.28-.3-.21-.02-.07-.04-.14-.06-.22-.05.04-.09.08-.14.12-.05-.15-.21-.22-.39-.14.57,1.35,1.08,2.76.34,4.46-.19-.56-.43-1.14-.42-1.8-.05.09-.11.17-.16.26-.05-.6-.49-.82-.66-1.33-.33.57-.06,1.31.08,1.8.35,1.15.77,2.23,1.13,3.33.26.8.41,1.85.85,2.49.1.15.3.26.37.44.15.41-.16.73.28,1.15.18.17.96.41.85.73-.08.17-.33.36-.49.47-.5.35-1.55.96-2.08,1.21-1.17.54-.38-.66-.33-1.24.07-.71-.28-.65-.38-1.08-.06-.22.07-.5.06-.76-.07-1.14-.67-2.67-.95-3.82-.25-.98-.37-2.08-.72-3.07-.1-.28-.22-.62-.5-.71-.21.34-.04.43-.02.73.01.16-.11.21-.1.24.01.09.12.15.13.27.01.09-.07.24-.03.34-.08-.02-.16-.04-.24-.05.07.13.32.38.35.5.02.07-.05.18-.03.29.05.28.31.57.38.94.02.08.08.12-.04.16-1.4-.59-1.72-2.39-1.89-4.07-.2.04-.19.18-.14.36-.1.04-.2.08-.3.12.03.13.06.25.09.38-.06-.03-.13-.07-.19-.11.06.18.12.35.19.53-.08-.07-.16-.14-.25-.21-.16,0,.04.39.03.47-.08-.03-.16-.06-.24-.09.08.17.16.34.24.51-.05.03-.1.06-.15.09.02.32.35.39.1.61.17.22.25.41.23.71,0,.07-.16.1.03.32-.29-.22-.65-.59-.87-.91-.37-.54-.5-1.02-.42-1.71.07-.61.48-1.15.32-1.75-.17.08-.01.21-.29.15.13.3-.22.39-.11.71-.05-.03-.1-.05-.15-.08-.03.14-.06.28-.09.42-.04.12-.09-.2-.13,0-.02.1-.02.21,0,.31-.06,0-.11-.01-.17-.02.02.18.05.35.07.52-.09.11-.18-.21-.19-.01-.02.26.12.4,0,.72-.02.06-.11.08-.11.09.07.28.19.66.22.92Z"/>
      <path class="cls-1" d="M390.59,555.54c.13.03.76.21.81.21.04,0,.08,0,.12-.05.48-.8.86-1.66,1.37-2.45,1.01-1.58,2.45-3.21,3.91-4.02,1.74-.98,3.66-.97,5.55-.06.1.11.03.11-.05.09-.6-.17-1.23-.32-1.84-.29-2.99.14-5.6,2.93-7.24,6.25-.07.14-.43.87-.44.95,0,.05-.01.09.01.12.86.54,1.79,1.09,2.77,1.62.11-.05.06-1.35.24-1.65.37-.65,1.2.19.93.54-.2.25-.42.19-.52.7-.12.63.15.98.6,1.25.17.1.74.43.88.23.17-.25.02-.69.46-.92,1.02-.51,1.85,1.8.88,2.43-.92.62-2.12-.33-3.04-.5-.37.48-.51,1.33-1.12,1.53-.59.18-1.09-.42-.84-1.06.21-.54.44-.16.79-.19.31-.03.54-.38.38-.69-.08-.17-.72-.55-.9-.66-.7-.43-1.44-.77-2.16-1.05-.09.03-.79,1.5-.88,1.7-.15.32-.84,1.79-.81,1.98.02.18.22.31.4.28.42-.07.54-.77.94-.47.41.3.38,1.12-.14,1.33-.64.26-1.15-.25-1.67-.42-.72.69-1.53,2.12-2.68,1.75-1.05-.31-.99-1.78.05-1.87.37-.03.68.47.91.37.18-.07.74-.93.74-1.15,0-.19-.33-.67-.49-.75-.17-.09-.55,0-.65-.12-.29-.38.37-1.14.82-.75.12.1.61.79.67.81.04-.02.08-.03.11-.05.46-.99.92-2.03,1.38-3.11.03-.2-.4-.33-.56-.39-3.1-1.05-7-.12-10.53-1.22-.28-.11-.56-.23-.84-.37.64.15,1.28.22,1.92.22,3.54.11,6.5-.84,9.76-.1ZM388.26,559.94c-.45.48.29.41.54.61.6.45,1.51,2.22,2.57,1.78.31-.14.35-.42.14-.65-.51.14-.61.64-1.14.23-.62-.47-1.12-1.42-1.72-1.84-.11-.08-.21-.16-.38-.13ZM390.78,558.8c-.15.14-.23.33-.32.5-.15.31-.62,1.18-.68,1.43-.07.28.2.47.34.23.11-.17.24-.63.32-.85.14-.4.34-.91.33-1.31ZM393.76,557.51c-.11,0-.21,0-.32,0-.01.02.3.26.35.29.18.12,1.3,1.04,1.41,1.08.05,0,.11,0,.15-.04.05-.21.09-.39-.07-.54-.5-.29-1.01-.56-1.51-.8ZM396.02,556.42c-.15.07-.16.3-.19.45-.13.69-.12,3.19-.7,3.56-.22.14-.57-.09-.76.15-.24.3.3.84.83.29.74-.78.54-2.63.84-3.59.11-.35.74-.84-.02-.86ZM389.21,562.39c.15-.23.44-.5.09-.67-.52.48-.65,1.36-1.44,1.45-.19-.96-1.21-.59-.75.21.27.49,1.13.05,1.48-.23.26-.2.45-.49.62-.76ZM396.61,559.1c-.08-.04-.33-.19-.39-.11-.28.35.6.76.81.86.51.21,1.1.31,1.61.07.67-.29.18-1.54-.33-1.28-.35.19.03.96-.26,1.06-.1.03-.59-.09-.71-.14-.23-.1-.51-.34-.73-.46Z"/>
    </g>
  </g>
  <path class="cls-7" d="M494.34,347.68v.04h-150.21v157.9h10.73v.02h-10.72v146.69h311.73v-304.65h-161.52ZM494.4,494.39h-139.01v-135.44h139.01v135.44ZM355.39,641.05v-135.43h138.98v135.43h-138.98ZM644.59,641.05h-139v-135.43h139v135.43ZM644.6,494.39h-138.97v-135.44h138.97v135.44Z"/>
</svg>